/* XPM */
static char *bitcoincloud16[] = {
/* columns rows colors chars-per-pixel */
"16 16 171 2 ",
"   c None",
".  c #CF801E",
"X  c #CF801F",
"o  c #D1811E",
"O  c #D2811F",
"+  c #D3821F",
"@  c #D7831F",
"#  c #D68420",
"$  c #D88420",
"%  c #D88520",
"&  c #D98521",
"*  c #D98620",
"=  c #DB8720",
"-  c #DE8821",
";  c #DF8D2A",
":  c #DF8E2D",
">  c #DD8E2F",
",  c #DE8F2E",
"<  c #DD933B",
"1  c #DF943C",
"2  c #DF953C",
"3  c #DF953E",
"4  c #E18A21",
"5  c #E68D22",
"6  c #E88E21",
"7  c #E88E23",
"8  c #EA8F22",
"9  c #E18F2B",
"0  c #EC9123",
"q  c #EE9223",
"w  c #ED9224",
"e  c #EE9224",
"r  c #EF9324",
"t  c #EF9325",
"y  c #EA9128",
"u  c #F19322",
"i  c #F09323",
"p  c #F29523",
"a  c #F69521",
"s  c #F49523",
"d  c #F09324",
"f  c #F19324",
"g  c #F19325",
"h  c #F19424",
"j  c #F29424",
"k  c #F59625",
"l  c #F59725",
"z  c #F79624",
"x  c #F69724",
"c  c #F79724",
"v  c #F69725",
"b  c #F59626",
"n  c #F99721",
"m  c #F89624",
"M  c #F89724",
"N  c #F79825",
"B  c #F79826",
"V  c #F99824",
"C  c #F89825",
"Z  c #F99925",
"A  c #F89826",
"S  c #F99926",
"D  c #F89927",
"F  c #F99927",
"G  c #FA9926",
"H  c #F2972A",
"J  c #F49728",
"K  c #F59929",
"L  c #F69828",
"P  c #F79928",
"I  c #F79A29",
"U  c #F79C2D",
"Y  c #F99A28",
"T  c #F99A29",
"R  c #F89B2A",
"E  c #F89B2B",
"W  c #F99B2B",
"Q  c #FA9C2A",
"!  c #F89B2D",
"~  c #FA9E2F",
"^  c #E29335",
"/  c #EA9733",
"(  c #EE9832",
")  c #EA9937",
"_  c #E49639",
"`  c #E1963D",
"'  c #EB9B3C",
"]  c #EE9E3E",
"[  c #F19B32",
"{  c #F69D30",
"}  c #F69C31",
"|  c #F69C32",
" . c #F69D33",
".. c #F39D35",
"X. c #F39E37",
"o. c #F49D36",
"O. c #F79F37",
"+. c #F89E32",
"@. c #F99F32",
"#. c #F89E33",
"$. c #FA9E32",
"%. c #F89F34",
"&. c #F99F34",
"*. c #F09E3B",
"=. c #F29F3D",
"-. c #F09F3E",
";. c #F9A033",
":. c #F8A034",
">. c #FAA035",
",. c #F7A139",
"<. c #F3A03D",
"1. c #F4A13F",
"2. c #F5A23E",
"3. c #F9A238",
"4. c #FAA23B",
"5. c #FAA33B",
"6. c #E89F49",
"7. c #EFA040",
"8. c #F5A340",
"9. c #F6A340",
"0. c #F8A643",
"q. c #EFAB5A",
"w. c #F7AC52",
"e. c #F2AB54",
"r. c #EBAC60",
"t. c #E8AF6B",
"y. c #EDB16B",
"u. c #E4B071",
"i. c #EAB373",
"p. c #EDB571",
"a. c #EFB673",
"s. c #EAB678",
"d. c #F0B671",
"f. c #E3B884",
"g. c #EEBD84",
"h. c #E6BD8C",
"j. c #EFC18B",
"k. c #EBC18F",
"l. c #F2C28A",
"z. c #F1C38D",
"x. c #E8C398",
"c. c #E9C69C",
"v. c #F3CA99",
"b. c #E5C9A7",
"n. c #EFCCA2",
"m. c #E6CAA8",
"M. c #E1C9AE",
"N. c #E8CCAB",
"B. c #ECCEA9",
"V. c #E9CEAD",
"C. c #E5D1B8",
"Z. c #E5D3BE",
"A. c #EDD7BB",
"S. c #F0D7B9",
"D. c #E5D9C8",
"F. c #E6DBCD",
"G. c #F0DBC3",
"H. c #E4DCD2",
"J. c #E5DDD3",
"K. c #E4DDD6",
"L. c #EADED1",
"P. c #E9DFD3",
"I. c #EBE0D4",
"U. c #E7E0D9",
"Y. c #E4E0DB",
"T. c #E8E3DD",
"R. c #EBE5DD",
"E. c #E6E3E0",
"W. c #EBE6E1",
"Q. c #EBEAEA",
"!. c #E8EBEE",
/* pixels */
"                      3 1       ",
"          2 ' 1.=.] 2.` <       ",
"      _ ,.#.Q N N C R :.X.      ",
": > ..O.;.W B 6.) / ( z | ^     ",
"; 9 U T &.5. .t.M.b.f.7.! }     ",
"  J F A &.0.<.N.Q.W.Z.r.P E ,   ",
"  e m c H -.k.U.G.v.J.q.M G y   ",
"  g n [ u.h.E.I.B.l.D.s.a Z j   ",
"  d M *.m.!.S.z.V.L.H.y.L V f   ",
"  5 n o.x.R.n.e.A.P.j.9.S Z w   ",
"  $ s { p.C.F.Y.T.K.w.3.Y c h   ",
"    q I 8.i.a.g.c.d.4.@.D p = * ",
"    @ r F +.~ %.>.$.T K t 8 # % ",
"      6 i b k x v l u 0 &       ",
"      . + 7 4 5 5 - O           ",
"      o X                       "
};
