/* XPM */
static char *bitcoincloud64[] = {
/* columns rows colors chars-per-pixel */
"64 64 166 2 ",
"   c None",
".  c #956C1B",
"X  c #AE7B1F",
"o  c #B27C1F",
"O  c #B38520",
"+  c #B68921",
"@  c #BA8B21",
"#  c #B98829",
"$  c #AA8432",
"%  c #BD8F33",
"&  c #FD8500",
"*  c #FC8904",
"=  c #FC8E0B",
"-  c #FD900E",
";  c #FC9114",
":  c #F7931E",
">  c #FB941B",
",  c #FD991E",
"<  c #C48F2A",
"1  c #CC8E2A",
"2  c #D78F24",
"3  c #CC9424",
"4  c #CE9A24",
"5  c #D99124",
"6  c #D29825",
"7  c #D89D26",
"8  c #D79C2B",
"9  c #D8992A",
"0  c #DD9D33",
"q  c #E89726",
"w  c #E49C26",
"e  c #E89C27",
"r  c #EB9D2C",
"t  c #F79624",
"y  c #F89624",
"u  c #F69926",
"i  c #F89825",
"p  c #F69728",
"a  c #F79B2B",
"s  c #F89B2B",
"d  c #EF9B31",
"f  c #F59D33",
"g  c #F99E32",
"h  c #F39F3B",
"j  c #D7A127",
"k  c #D9A227",
"l  c #DBA43A",
"z  c #E3A027",
"x  c #E9A027",
"c  c #E7A52C",
"v  c #ECA32B",
"b  c #E7A929",
"n  c #ECA929",
"m  c #F3A227",
"M  c #FCA226",
"N  c #FEAA27",
"B  c #F4A42A",
"V  c #FDA529",
"C  c #F3AD2A",
"Z  c #FDAB2A",
"A  c #F4B12B",
"S  c #FEB42C",
"D  c #FEBA2D",
"F  c #E1A030",
"G  c #EBAE33",
"H  c #E8AF38",
"J  c #F6A630",
"K  c #FAA135",
"L  c #FEA931",
"P  c #F5A23E",
"I  c #F9A33B",
"U  c #F7A83E",
"Y  c #FEB532",
"T  c #F9BA31",
"R  c #FEC12F",
"E  c #EDA045",
"W  c #F4A444",
"Q  c #FAA642",
"!  c #FAA846",
"~  c #F3A74A",
"^  c #F3A84D",
"/  c #FAAA4B",
"(  c #E7A757",
")  c #EFA754",
"_  c #EDA954",
"`  c #EBAA5C",
"'  c #F2AB54",
"]  c #FBAE53",
"[  c #F2AE5C",
"{  c #FCB055",
"}  c #FBB25B",
"|  c #ECAE64",
" . c #EEB164",
".. c #ECB36B",
"X. c #F1B265",
"o. c #F0B36A",
"O. c #ECB673",
"+. c #E6BC7E",
"@. c #EDBB7C",
"#. c #F0B975",
"$. c #F0BB78",
"%. c #FFC341",
"&. c #EDBE83",
"*. c #E6BF89",
"=. c #E2BE90",
"-. c #ECC38C",
";. c #E7C396",
":. c #ECC694",
">. c #EFC896",
",. c #E7C79C",
"<. c #EAC799",
"1. c #E5CB9E",
"2. c #EBCA9C",
"3. c #F0C693",
"4. c #E6C9A2",
"5. c #ECCEA3",
"6. c #E4CEA9",
"7. c #EACFAA",
"8. c #E2D0AB",
"9. c #EBD2AD",
"0. c #E7D3B4",
"q. c #EAD3B2",
"w. c #E2D6B8",
"e. c #E9D6BC",
"r. c #E2DBBE",
"t. c #EBD9BD",
"y. c #DADCCC",
"u. c #E8D7C0",
"i. c #E6DAC3",
"p. c #EBDCC5",
"a. c #E7DFCB",
"s. c #E9DECB",
"d. c #EBE1CB",
"f. c #E6E1D0",
"g. c #E9E1D5",
"h. c #EAE8D4",
"j. c #E5E3D9",
"k. c #EDE7D9",
"l. c #E4EBDC",
"z. c #EDE9DC",
"x. c #F3E6D3",
"c. c #F4EAD8",
"v. c #E9E7E4",
"b. c #EBEBE5",
"n. c #E5EBE8",
"m. c #EAEDEC",
"M. c #F1EEE1",
"N. c #E4F0E6",
"B. c #EAF1E5",
"V. c #EDF1EE",
"C. c #F3F0E4",
"Z. c #F5F3EC",
"A. c #F9F4EE",
"S. c #E3F5F3",
"D. c #ECF4F4",
"F. c #E7F7FE",
"G. c #ECF3FA",
"H. c #E0FEFE",
"J. c #EDFCFF",
"K. c #F4F6F2",
"L. c #F9F7F2",
"P. c #F5F9F6",
"I. c #FAF9F4",
"U. c #F0F7FD",
"Y. c #F4FEFE",
"T. c #FDFFFF",
/* pixels */
"                                                                                                                                ",
"                                                                                                                                ",
"                                                                                                                                ",
"                                                            %.    $ %                                                           ",
"                                                l l G Y C V V V S V V C B v                                                     ",
"                                            H C N V , i y > y i y y y i i i V C K V                                             ",
"                                      Y Y C N , p y y y i i i i y y i y i y y i i i V C                                         ",
"                                    D C V y p p p i i i i i i i i y i i i i i i i y y V S S                                     ",
"                                # S i i p : i i y i i p i y a i i i p i i i i i i i i p y C S                                   ",
"                              Y V i p i i i i i i i i i i i y i i i i i i i i i i i i p y p i C C                               ",
"                          a C C y p i a i i i i i i i i i i i i i i i y i i i i i i i y i i i y i V L                           ",
"                          C i y y i i i i i i i i i i i p i i i i i i i i i i i p i i i i i i i i i V 0                         ",
"                      1 S i y i i i i i i i i i i i i i i i i i p i i i i i i i , i i i i i i i i i i C                         ",
"                    r J V y i i g i a i i i a a i a i a i i a i y i a i i i i i i i i i i i i i i i i i B c                     ",
"                    V i i i g i K a a a g a i g i a i i g y > J p = p a a g i i , = i a a i K i i i i i i V                     ",
"                  C i i i i i g i i a g a a a g a g a g i = g i.6.J = y i g * E ` p : a a i a a i g g i i V C                   ",
"                  C y y i i g i g g g g g g g g i K g g > E 0.U.L.2.r p g ; g 6.S.#.y K g i a a g g i i y y i <                 ",
"                D i y y y i i i i g K K K g K g K g K I g _ r.U.T.U.e.g & a u.L.T.n.| i h g g g g i g i i i i S                 ",
"              Y N y i p i i i g i g K I I I I K I K I I g ; ^ k.T.T.K.4.` 5.U.T.T.0.i i g i g g a g i i i i y i N               ",
"              D i y i i i i i i g g g I I I I I I I I I P I >  .L.T.T.P.x.T.T.U.2.P = h ..a y g i i g i i i i y C Y             ",
"            C V p y i i i i a g a g K g I Q I Q Q Q I Q I I , { K.T.T.T.T.T.L.5.a ; a 0.n.8.i y g i g a y i i y i C             ",
"            V y y i i i a i i i a g g I I Q ! Q Q Q Q Q Q a P u.K.T.T.T.T.T.Z.#.& a 2.J.T.N.O.g g g i i i i i p i V             ",
"          a i y i i i i y i a i g g g I I Q Q ! ! ] ! ! i _ 9.U.T.T.T.T.T.T.T.d.` 1.K.T.U.u.' > a i i a i i i i i V G           ",
"          q V i i i p i i i g i i g g I I Q ! ! ! ! ! I W 0.U.T.T.T.T.T.U.T.T.U.K.Z.T.P.s.P i i g a i i i p i i i i B           ",
"          C i i i i i i i i i a g g I I I Q Q ! ] ] I ~ u.K.T.T.T.T.T.u.-.z.U.T.T.T.U.9.! i i K i g i i y i i i i y C 9         ",
"          C y i i i i i y a i g a g K K I Q Q ! ] g ' 7.J.T.T.T.T.U.d..., O.d.T.T.T.L.o.& K g g g i g i i i i y i y V 9         ",
"        B i y i y i y i i y a g a g g I I Q ! Q I P 9.P.T.T.T.T.T.b.X.Q I I $.m.U.T.T.d.P i K K a a i i i i i i i y V c         ",
"        B V y i i i i i i i i i i g g I I Q ! i ~ q.D.T.T.T.T.U.u.$.Q { X.{ K @.K.T.T.L.-.; i I g i i y i i i i i y i D         ",
"        D i y i i i i i i i i g g K B I I Q g W :.J.T.T.T.T.T.A.@., ] } } } I I z.T.T.T.N._ i g a g i i i i i i i i y C         ",
"      o V i i i i i i i i i g i = g g i K I p 4.V.T.T.T.T.T.T.L.7.[ ] } } { } i q.U.T.T.U.1.; g a i i a i i y i i i i C         ",
"      . A y y i i i i y y i > > g ;.y.^ & p <.K.T.T.T.T.T.Z.U.T.U.q.X.! { ! ! i 9.T.T.T.T.d.: i i a i i i y i i i i y C C       ",
"        C y i i y i i i i y ; ( l.U.U.9...:.F.T.T.T.T.T.B.3.9.L.T.U.g.@.! I p -.z.T.T.T.T.V.g i g g i i i i i y i i i S         ",
"        S p i i i i i i i i i &.S.T.T.U.Z.T.T.T.T.T.T.m.$.g ^ u.J.T.T.m.u.5.t.B.T.T.T.T.T.d.g a a g i p p i i y i i i C         ",
"      B N y i i i p i i i i p = &.D.T.T.T.T.T.T.T.T.z.-.Q } ] X.q.U.T.T.U.U.T.T.T.T.T.T.U.4.> y a i i i i i i i i i i A .       ",
"        S i i i i p p i i i a i i O.z.T.T.T.T.T.T.D.-.I ] } } ! o.g.T.T.T.T.T.T.T.T.T.U.d.[ - g a a i i i i i i i i i B o       ",
"        S p y i i : i i i i g a ; : &.Z.T.T.T.T.V...Q Q X.} } ] I o.V.T.T.T.T.T.T.T.U.B..., V g a g i i p i i i p : i D         ",
"        A i i i i i i i i i g i K > & 2.T.T.T.T.M.o.L ! } } } } { I a.T.T.T.T.c.z.f.4.^ i i K g i i i i a i y i y y V e         ",
"        7 N i i i i i i i a a a a ; ~ t.T.T.T.T.U.d...W ! { ] { } B :.T.T.T.U.2.i P i i I P g g a g i i y i i i i y V x         ",
"        @ N p p i i i i i i i > , ^ j.T.T.Z.F.T.T.U.D.@.g Q } ! ! i 2.T.T.T.T.d.g I Q I I K g g i i i i i i i i y y S           ",
"        # b > i i i i i i i i = ` h.U.T.M.-.X.C.T.T.T.b.5.Q i K > ` t.U.T.T.T.F. .I ! I I K g g g a a i i i p i i i C           ",
"          b i i i i i i i i i g -.F.T.J.&.y = :.L.T.T.T.Z.u.:.X.@.d.T.T.T.T.T.K...I Q Q I g g i i g i i i y i i i V 5           ",
"          j V i i i y i i i g i W f.b.:.i > g t.L.T.T.T.T.T.U.U.U.T.T.T.T.T.T.b.[ i Q I I I g a g i y i i i i i i i i           ",
"            C y y i i i y i i i - P O.> - ^ i.U.T.U.M.T.T.T.T.T.T.T.T.T.T.T.P.e.g I Q I I g g g i i i i i i i y y C             ",
"            D C y i i y i i i g i a J p W d.U.T.J.-. .9.P.U.T.T.T.T.T.T.T.U.g.' g I Q I I K g a i g i i y i i y V D             ",
"            6 C y y i i i i i a a g I K ;.F.T.A.9.y * ^ 9.b.T.U.T.T.T.T.J.u.X.; K I I I I K g g g g i i i i y i S               ",
"              R V y i i a a K i g K K g g 9.H.:.i i i > > #.t.c.U.U.J.N.9.P > g I I K I K K I i a i i p i i y C D               ",
"                C V i a i i a a g i K i > E  .h ; K g K i ; i | o.-. .P , > V g g K K g K K g g a g i i i y i S                 ",
"                O C y i i i a g g i i i p - a a a i a a g i y = , ; ; , a a g g i g g g a g g i i i i i y y S                   ",
"                  S N y i i g i i g i i g i g g a g i g i V g a a K K i a a i i g i a a i i K i a i i a i V S                   ",
"                    c V y i g i i i i g i g i i i i i a a i a a i i a a i K i a i a i g g g i i i g i i i V                     ",
"                    3 V i y i i i y i y i i i i y i i a : i i i i i i i g a i i a i i i i a i i i i a C r q                     ",
"                        Y C i i i i i i i i i i i i i y p i i i i i i i i i y i i i i i i i i i i i i D o                       ",
"                        O e i y i i y i i i i i i i i i y i i p i i i i i i i i i a i i i i y y i V V                           ",
"                          e V V y i i i i i i i i i i i i i i , a i y i i i p i i i i i i i i y C C 5                           ",
"                              S C i p y y i i i i i i p i i i p i p i i y i i p i i i i i y i C L                               ",
"                                  S C i y i i i p i i i i p i i i i i i i i i i i i y p i V D o                                 ",
"                                    S S V y i i y y i i i i i i i i i i i i i i y y p V C D                                     ",
"                                        D C i V V p y i p i i i i p i y p p y y V V C D m                                       ",
"                                            i 5 C S i N i i i i i y i y i V N b b 6                                             ",
"                                                    w z D m S C S n D S A k # O                                                 ",
"                                                          o .     4                                                             ",
"                                                                                                                                ",
"                                                                                                                                ",
"                                                                                                                                "
};
